<?xml version="1.0" encoding="UTF-8"?>
<svg id="Capa_1" data-name="Capa 1" xmlns="http://www.w3.org/2000/svg" viewBox="0 0 432.87 240.87">
  <defs>
    <style>
      .cls-1 {
        fill: #aab1ff;
      }

      .cls-2 {
        fill: #33386b;
      }
    </style>
  </defs>
  <g>
    <path class="cls-2" d="m148.73,70.39C148.73,31.57,115.35,0,74.36,0S0,31.57,0,70.42v170.45h43.34V70.42c0-16.21,13.9-29.37,31.02-29.37s31.02,13.16,31.02,29.37l.09,170.45h43.34l-.09-170.48Z"/>
    <path class="cls-1" d="m253.77,70.39C253.77,31.57,220.39,0,179.4,0s-74.36,31.57-74.36,70.42v170.45h43.34V70.42c0-16.21,13.9-29.37,31.02-29.37s31.02,13.16,31.02,29.37l.09,100.72h43.34l-.09-100.75Z"/>
  </g>
  <path class="cls-1" d="m358.55,99.88c-17.12,0-31.02-13.16-31.02-29.37s13.9-29.37,31.02-29.37l74.32-.09V0l-74.35.09c-40.99,0-74.33,31.6-74.33,70.42s33.34,70.42,74.36,70.42v-41.04h0Z"/>
  <path class="cls-2" d="m358.51,99.94v41.04c17.12,0,31.02,13.16,31.02,29.37s-13.9,29.37-31.02,29.37l-73.64.04c-17.12,0-31.02-13.16-31.02-29.37h-43.34c0,38.85,33.34,70.42,74.36,70.42l73.67-.04c40.99,0,74.33-31.6,74.33-70.42,0-38.85-33.34-70.42-74.36-70.42Z"/>
</svg>